<svg version="1.1" id="Layer_1" xmlns="http://www.w3.org/2000/svg" xmlns:xlink="http://www.w3.org/1999/xlink" x="0px" y="0px"
	 width="100%" viewBox="0 0 377 277" enable-background="new 0 0 377 277" xml:space="preserve">
<path fill="#FDFEFE" opacity="1.000000" stroke="none" 
	d="
M263.000000,278.000000 
	C176.666702,278.000000 90.833359,277.973846 5.000228,278.095886 
	C1.576153,278.100769 0.899580,277.424377 0.904196,273.999969 
	C1.025064,184.333496 1.025050,94.666794 0.904235,5.000320 
	C0.899622,1.576522 1.575600,0.901674 4.999894,0.904834 
	C127.999741,1.018330 250.999725,1.018310 373.999573,0.904906 
	C377.422760,0.901750 378.100433,1.574901 378.095825,4.999800 
	C377.974915,94.666275 377.974976,184.332962 378.095734,273.999451 
	C378.100342,277.422729 377.427277,278.113647 374.000000,278.098877 
	C337.167206,277.940125 300.333466,278.000000 263.000000,278.000000 
z"/>
<path fill="#2A679A" opacity="1.000000" stroke="none" 
	d="
M78.446716,136.162842 
	C78.402557,136.790527 78.363602,137.133911 78.247101,137.725174 
	C78.002922,138.882324 77.999809,139.831421 77.386200,140.987183 
	C77.095726,142.903366 76.933624,144.495483 76.678207,146.476532 
	C75.479088,152.691071 75.960526,158.543488 76.449562,164.760635 
	C76.791824,166.409332 76.973602,167.690704 77.178772,169.360352 
	C77.631920,170.565079 78.034218,171.390640 78.111351,172.681580 
	C78.254425,173.353119 78.344330,173.684204 78.452332,174.272491 
	C78.360397,175.389557 79.035355,175.921570 79.460693,176.871918 
	C80.691238,179.463882 81.799767,181.792740 83.050705,184.433960 
	C83.467636,185.468353 84.023254,185.999741 84.601768,186.857239 
	C84.744637,187.102005 85.024521,187.399811 85.092773,187.592422 
	C85.482101,188.485474 86.032852,189.015915 86.664360,189.839508 
	C101.855385,208.088043 122.027756,216.786713 144.450027,220.034851 
	C195.089828,227.370605 240.041306,213.787491 279.288452,181.150558 
	C286.991180,174.745178 294.101318,167.625885 299.419800,159.086716 
	C301.787598,155.285080 304.678192,154.623260 308.566101,154.901443 
	C312.035828,155.149689 310.867188,156.801285 309.836304,158.457260 
	C306.660278,163.559189 303.019287,168.324814 299.021790,172.799377 
	C273.135315,201.775238 240.530258,219.570084 203.513428,229.915085 
	C183.478745,235.514145 163.031067,238.154602 142.244873,236.829422 
	C118.764519,235.332520 96.439911,229.869888 77.589325,214.800308 
	C52.239357,194.534973 46.195656,161.421448 62.084793,131.954529 
	C71.513733,114.468262 85.254341,101.251915 102.383514,90.901482 
	C104.033409,90.146790 105.289223,89.368652 106.806900,88.412392 
	C107.068100,88.233116 107.418701,87.981735 107.630722,87.942093 
	C108.386017,87.541283 108.903351,87.137238 109.824844,86.783943 
	C111.506012,85.937630 112.878258,85.198051 114.620331,84.328033 
	C115.391693,84.782791 115.542305,85.426682 115.241837,86.600983 
	C113.211304,88.599876 111.380898,90.127052 109.266731,91.821777 
	C108.510414,92.485764 108.008705,92.949890 107.180038,93.558289 
	C100.768875,99.465874 95.034386,105.533180 89.946167,112.640335 
	C89.337570,113.479530 88.937576,114.050995 88.328529,114.900818 
	C88.149887,115.200516 88.037735,115.590782 87.915031,115.752541 
	C86.448227,117.670013 85.725143,119.788025 84.289871,121.871223 
	C83.662033,123.181381 83.220245,124.219398 82.593094,125.542938 
	C82.172714,126.475670 81.887733,127.098358 81.383362,127.993851 
	C80.744789,129.929382 80.226440,131.543518 79.571198,133.496490 
	C79.212486,134.567215 78.841438,135.227325 78.446716,136.162842 
z"/>
<path fill="#38A2D8" opacity="1.000000" stroke="none" 
	d="
M165.677216,51.784470 
	C189.772583,44.113068 214.061539,40.250217 238.892319,42.334499 
	C264.210114,44.459663 288.212036,50.902332 306.917694,69.650864 
	C328.143829,90.925674 329.273041,119.650467 317.079041,145.465698 
	C316.004211,147.741135 309.464325,149.271484 307.369812,147.874481 
	C305.614685,146.703827 307.072418,145.484451 307.482697,144.408981 
	C310.806305,135.696671 312.421753,126.765083 310.775726,117.481583 
	C307.635925,99.772774 296.510895,88.145660 281.294769,80.054810 
	C261.682648,69.626480 240.475906,67.502312 218.705444,69.181541 
	C199.619629,70.653702 181.397552,75.691879 163.773010,82.993805 
	C160.957733,84.160194 159.801788,83.753799 159.840332,80.518028 
	C159.933563,72.690895 160.044037,64.856354 159.797363,57.035851 
	C159.665176,52.844944 162.836990,52.929169 165.677216,51.784470 
z"/>
<path fill="#F5F8FA" opacity="1.000000" stroke="none" 
	d="
M133.698883,125.681084 
	C133.983505,127.477036 133.324661,128.532837 131.440994,128.983826 
	C128.064972,127.324860 125.810875,129.932449 122.776764,130.480560 
	C115.359032,129.620575 114.400055,128.800797 114.557495,121.758278 
	C114.682198,116.180099 113.323372,110.456596 116.089508,104.738937 
	C118.953522,103.268860 121.590546,103.487862 124.629669,103.902908 
	C130.573196,106.758690 133.511688,112.318207 132.819656,118.776802 
	C132.577591,121.035950 131.560257,123.361572 133.698883,125.681084 
z"/>
<path fill="#5B89B1" opacity="1.000000" stroke="none" 
	d="
M219.214111,165.777298 
	C216.812469,165.771637 214.874451,165.771637 212.698517,165.771637 
	C215.706207,160.001617 216.700104,154.688431 213.175797,149.354675 
	C212.783569,148.761078 212.260239,148.308350 212.942810,147.743637 
	C214.295715,146.624313 215.941345,146.317154 217.634598,146.511780 
	C219.101639,146.680389 219.399887,147.805099 219.393967,149.079803 
	C219.378510,152.407333 219.370834,155.734924 219.371063,159.062500 
	C219.371231,161.285843 219.294006,163.684235 222.427048,163.732986 
	C225.448486,163.779999 225.713455,161.598953 225.699753,159.254272 
	C225.667648,153.763824 225.577271,148.269684 225.743530,142.784103 
	C225.810135,140.586395 224.855240,139.048584 223.531052,137.596375 
	C224.249176,135.938904 225.853928,136.367859 227.003952,135.890884 
	C229.722229,134.763474 230.424255,135.693115 230.265518,138.599899 
	C229.921341,144.902634 229.990952,151.228790 229.930405,157.545761 
	C229.904755,160.222534 230.229980,162.823608 232.807968,165.090607 
	C228.098694,166.651489 223.804916,165.007446 219.214111,165.777298 
z"/>
<path fill="#4479A7" opacity="1.000000" stroke="none" 
	d="
M130.865128,137.268845 
	C138.678650,136.360748 138.686707,136.357422 141.585114,143.383987 
	C143.358261,147.682602 145.102036,151.993362 146.923294,156.672607 
	C147.855774,157.558365 149.113052,157.276505 149.783920,158.674561 
	C149.194763,161.127197 148.913605,164.352432 146.680115,164.564133 
	C144.381393,164.782013 144.386520,161.467133 143.609207,159.607285 
	C141.768951,155.204269 140.073929,150.740540 138.249908,145.926270 
	C137.392654,145.261139 137.090958,144.445343 136.471115,143.974258 
	C136.209137,144.724518 136.234055,145.533112 135.947266,146.631714 
	C135.960495,152.236069 136.026932,157.497864 136.414551,163.077148 
	C137.585831,163.784103 137.581085,164.466476 137.057617,165.428192 
	C135.179901,165.642380 133.606613,165.650681 131.640411,165.648727 
	C130.415543,165.230896 130.419693,164.552307 130.967072,163.613174 
	C132.140091,163.067978 133.233490,162.821762 132.291855,161.290283 
	C132.480072,160.196732 132.950363,159.466019 133.050842,158.324387 
	C133.229141,152.412598 133.375427,146.809479 133.593948,140.830566 
	C133.617233,139.529037 132.913391,139.031403 132.087524,138.275665 
	C131.824875,138.109482 131.409058,138.096863 131.221436,138.007065 
	C130.925491,137.774170 130.817154,137.631088 130.865128,137.268845 
z"/>
<path fill="#4C7FAB" opacity="1.000000" stroke="none" 
	d="
M154.676178,145.220245 
	C153.914291,137.026535 155.819229,135.486099 164.266418,137.053619 
	C160.991409,141.812286 161.498383,160.510422 165.332474,165.340546 
	C162.054062,165.340546 159.060791,165.340546 155.851181,165.340546 
	C160.077744,159.590820 157.248856,153.086075 157.953552,146.466248 
	C157.175217,144.812119 155.969971,145.590347 154.676178,145.220245 
z"/>
<path fill="#5686AF" opacity="1.000000" stroke="none" 
	d="
M194.718475,102.257286 
	C197.069870,101.186432 196.582230,102.677505 196.558105,103.768707 
	C196.506821,106.087845 196.428452,108.406624 196.402847,110.726013 
	C196.380783,112.725914 197.282318,113.210251 199.253555,112.779709 
	C205.735184,111.364082 207.873535,113.211868 208.374588,120.295204 
	C208.629059,123.892815 207.233337,127.832832 211.188324,130.976166 
	C207.601303,131.540451 204.738266,131.592377 201.405441,130.960770 
	C205.681168,126.924385 204.080688,122.288605 203.624878,117.918053 
	C203.429016,116.040146 201.629883,115.396942 199.799149,115.524841 
	C197.881805,115.658791 196.648026,116.811340 196.505920,118.648064 
	C196.288986,121.452141 196.378525,124.279945 196.231995,127.540756 
	C194.417725,128.270020 194.075897,126.992554 194.119263,125.868370 
	C194.418060,118.123741 193.476425,110.360794 194.718475,102.257286 
z"/>
<path fill="#5B89B1" opacity="1.000000" stroke="none" 
	d="
M247.287109,163.743866 
	C244.273376,167.727005 241.142120,165.783539 238.529724,164.138245 
	C234.611679,161.670670 233.644302,155.212280 236.030273,150.696213 
	C238.137634,146.707489 241.670456,145.531586 247.139236,147.381088 
	C247.184418,148.158356 246.979645,148.582214 246.422791,149.183624 
	C244.846344,150.211746 242.814575,149.252151 241.875397,151.138245 
	C243.143143,152.288849 244.683990,151.595901 246.358124,151.914001 
	C247.700607,152.042877 248.724152,152.130875 250.019135,151.701202 
	C252.360428,153.826050 251.595261,155.154449 248.901093,155.588776 
	C247.457382,155.821533 245.930969,155.512421 244.473877,155.698456 
	C242.721451,155.922211 239.991547,154.630096 239.661453,157.552353 
	C239.370331,160.129623 241.292908,161.724579 243.713913,162.425217 
	C244.471558,162.644470 245.331985,162.508591 246.518906,162.457764 
	C247.060120,162.670929 247.227722,162.961624 247.287109,163.743866 
z"/>
<path fill="#F0F5F8" opacity="1.000000" stroke="none" 
	d="
M176.882278,163.202606 
	C176.282700,163.050735 176.073502,163.081833 175.702911,163.020752 
	C175.287109,163.087646 175.025299,163.197083 174.363251,163.161636 
	C173.963028,163.016754 174.003143,163.000092 173.995285,163.020355 
	C170.153168,157.832489 170.629883,151.274689 175.506531,147.787811 
	C179.897675,146.351395 182.117569,148.927414 183.371155,151.807465 
	C185.085022,155.745010 185.323257,159.922455 181.246277,163.492493 
	C179.620956,164.036484 178.415817,164.184341 176.882278,163.202606 
z"/>
<path fill="#3971A1" opacity="1.000000" stroke="none" 
	d="
M117.253769,104.709297 
	C114.790840,112.152687 116.034821,119.415573 116.323578,126.552483 
	C116.461388,129.958466 120.360580,128.983139 123.182388,129.376236 
	C124.162987,129.345078 124.639709,129.583313 124.974503,130.533142 
	C120.280548,131.031662 115.586380,131.103027 110.426804,131.115204 
	C109.876778,130.863571 109.792160,130.671158 109.802780,130.178162 
	C112.184265,129.098892 111.911919,127.156212 111.909477,125.372734 
	C111.900719,118.975281 111.863174,112.577858 111.788696,105.732147 
	C111.486092,104.736366 111.415550,104.166061 111.762329,103.200058 
	C113.387680,102.801926 114.779861,102.776703 116.589325,102.774094 
	C117.371628,103.250313 117.521500,103.766403 117.253769,104.709297 
z"/>
<path fill="#5384AE" opacity="1.000000" stroke="none" 
	d="
M237.737183,114.015503 
	C238.771423,113.447029 239.593185,113.304451 240.368454,113.030342 
	C246.609314,110.823776 249.065643,112.410164 249.815369,119.158401 
	C250.251953,123.087975 249.250809,127.319817 252.512680,130.891602 
	C249.399338,131.772186 246.561020,131.329865 242.973022,131.140732 
	C247.521927,127.042030 246.301849,122.473015 245.476562,118.322937 
	C244.799942,114.920441 241.894272,114.959648 238.718872,116.419434 
	C237.399750,116.111092 237.329361,115.291389 237.737183,114.015503 
z"/>
<path fill="#4C7FAB" opacity="1.000000" stroke="none" 
	d="
M180.072906,114.087753 
	C177.610489,118.295303 181.147964,119.146301 183.346680,120.478569 
	C186.229935,122.225632 188.879669,124.130394 187.249725,127.876205 
	C185.829483,131.140106 182.753998,131.910339 179.347717,131.645782 
	C175.873306,131.375946 175.703247,129.298279 176.205627,126.305573 
	C176.733871,126.842171 177.349197,127.857513 178.218323,128.557999 
	C179.770844,129.809311 181.677231,130.268875 182.945831,128.401688 
	C184.038315,126.793701 183.147354,125.286270 181.567551,124.248146 
	C180.339447,123.441124 179.101700,122.637375 177.947815,121.730865 
	C173.734879,118.421127 173.442459,115.550873 179.553360,112.668533 
	C180.254257,112.969826 180.382523,113.380074 180.072906,114.087753 
z"/>
<path fill="#477BA8" opacity="1.000000" stroke="none" 
	d="
M134.064011,125.578117 
	C129.823761,126.874130 130.236755,124.430573 130.933456,121.809761 
	C132.607681,115.511581 132.184418,109.815613 126.085159,105.442764 
	C125.747650,104.881615 125.679024,104.525169 125.860413,103.685028 
	C136.030899,106.453812 139.239227,115.238785 134.064011,125.578117 
z"/>
<path fill="#4C7FAB" opacity="1.000000" stroke="none" 
	d="
M165.434067,116.114044 
	C164.313477,126.052216 164.527130,127.411835 167.504364,130.460724 
	C164.044785,131.559341 164.044785,131.559341 158.944763,131.007629 
	C161.962067,125.316422 162.180084,119.646034 158.814850,113.540596 
	C160.413147,112.649612 162.329636,112.806816 164.577057,113.103043 
	C165.669739,113.981033 165.776917,114.795403 165.434067,116.114044 
z"/>
<path fill="#5686AF" opacity="1.000000" stroke="none" 
	d="
M195.408997,146.120453 
	C196.437973,146.180847 197.105286,146.488708 197.706253,146.390533 
	C202.710312,145.572937 206.663788,146.920441 208.725662,151.854858 
	C210.784164,156.781174 208.855270,160.526550 204.561432,163.718964 
	C204.027298,163.750336 203.820114,163.602905 203.436172,163.119446 
	C202.860321,161.489349 203.225433,160.222885 203.368759,158.940689 
	C204.004608,153.252701 203.157043,151.935059 197.334503,149.870743 
	C195.674835,148.909149 193.951263,148.309769 195.408997,146.120453 
z"/>
<path fill="#5384AE" opacity="1.000000" stroke="none" 
	d="
M180.681000,163.238022 
	C185.574005,156.242523 183.931763,150.478516 176.444366,148.260590 
	C175.924652,148.025620 175.766815,147.803024 175.777008,147.207245 
	C181.164703,145.836212 185.849228,148.292160 187.351440,152.814041 
	C189.146729,158.218140 186.794693,162.627869 180.282349,165.448669 
	C179.492554,164.718277 179.653198,164.031082 180.681000,163.238022 
z"/>
<path fill="#477BA8" opacity="1.000000" stroke="none" 
	d="
M237.671844,113.342056 
	C238.031616,114.390686 238.092056,115.130821 238.243927,116.239227 
	C238.216370,119.466438 238.097412,122.325378 237.897797,125.625031 
	C237.973129,126.861259 237.978561,127.682152 238.334625,128.745361 
	C238.806015,129.227158 239.163864,129.426666 239.759903,129.821136 
	C240.173401,130.171051 240.348724,130.326019 240.246399,130.695679 
	C237.400772,131.606613 234.846542,131.412109 232.143387,131.042892 
	C235.299728,125.947861 235.190109,118.434830 231.826752,113.754242 
	C233.615997,112.642670 235.477356,112.751595 237.671844,113.342056 
z"/>
<path fill="#5384AE" opacity="1.000000" stroke="none" 
	d="
M223.113235,112.507965 
	C226.619019,113.113106 226.454910,115.507751 226.838562,117.866425 
	C227.454041,121.650421 224.826355,126.014595 229.136612,129.266159 
	C230.222763,130.085510 228.426147,131.035767 227.302292,131.353256 
	C225.454300,131.875351 224.387894,129.878372 222.329483,129.888779 
	C221.834183,129.683487 221.698105,129.506668 221.483002,129.005432 
	C221.404327,127.157753 221.897110,125.680077 221.814026,123.830338 
	C221.785843,122.873856 221.792328,122.238052 221.917847,121.291550 
	C222.027206,118.975739 222.399811,116.961624 221.441925,114.645004 
	C220.322220,112.554543 221.657761,112.594902 223.113235,112.507965 
z"/>
<path fill="#2E699C" opacity="1.000000" stroke="none" 
	d="
M195.847229,145.607727 
	C194.367798,147.534927 196.146286,147.834473 196.871277,148.818970 
	C197.866531,153.251175 196.998993,157.510895 197.574921,162.113037 
	C197.575760,163.355591 197.299591,164.095230 196.409607,164.965088 
	C195.306290,165.192978 194.525742,165.176849 193.360718,165.092361 
	C192.412552,164.297852 192.122360,163.498215 192.439362,162.146698 
	C192.590622,154.876541 192.618958,148.028107 192.605286,140.732330 
	C192.515930,139.447250 191.885620,138.970535 191.191620,138.210068 
	C190.984222,138.015320 191.000000,138.000000 190.991974,138.007507 
	C190.825165,137.843338 190.666382,137.671677 190.761078,137.257538 
	C195.021683,135.185074 196.591187,136.449799 195.955856,140.790192 
	C195.746933,142.217377 195.903549,143.698044 195.847229,145.607727 
z"/>
<path fill="#5B89B1" opacity="1.000000" stroke="none" 
	d="
M264.371155,129.771393 
	C263.304504,130.581879 262.297668,131.286346 261.202515,131.473190 
	C258.765259,131.889084 256.380859,131.590134 255.523819,128.789581 
	C254.466309,125.334007 256.629059,123.417618 259.406982,122.272018 
	C262.421082,121.028984 265.504974,120.095535 264.323486,115.351120 
	C269.153412,116.029732 266.372589,119.476273 266.289062,122.354347 
	C265.760681,123.034737 265.415588,123.372864 264.993988,123.609550 
	C260.664795,126.039909 260.663879,126.038277 264.371155,129.771393 
z"/>
<path fill="#4278A6" opacity="1.000000" stroke="none" 
	d="
M194.719086,101.842628 
	C195.162964,110.453018 195.357315,119.020828 195.838837,127.786240 
	C196.585571,128.488953 197.045105,128.994064 197.756226,129.729004 
	C198.169357,130.125183 198.330917,130.291534 198.241547,130.698792 
	C195.948212,131.014282 193.905792,131.088913 191.433029,131.073715 
	C190.904953,130.812881 190.807236,130.641891 190.828583,130.200546 
	C190.947632,129.930191 190.927261,129.995819 190.915649,129.963470 
	C191.573975,129.460022 192.105438,128.851318 192.725861,127.934677 
	C192.800323,120.544090 192.758194,113.433998 192.752747,105.884567 
	C192.280457,104.332352 192.228989,103.301193 193.660233,102.232101 
	C194.156738,101.926750 194.313141,101.863403 194.719086,101.842628 
z"/>
<path fill="#5888B0" opacity="1.000000" stroke="none" 
	d="
M152.246918,130.791077 
	C150.388519,130.010468 148.941910,130.208496 147.087830,131.054993 
	C144.532303,132.221725 141.637329,132.076904 140.330124,129.029892 
	C139.043121,126.029991 140.777817,124.087090 143.465012,122.798615 
	C145.359833,121.890068 147.199661,120.866768 149.410065,119.783234 
	C150.502396,120.081131 150.725586,120.774490 150.736282,121.921951 
	C150.307678,123.541695 149.164261,123.890060 148.164429,124.429199 
	C147.331818,124.878166 146.019196,125.256363 146.381256,126.403320 
	C146.848526,127.883591 148.336151,126.983650 149.737198,127.187546 
	C150.848724,127.397987 151.481949,127.774467 152.228363,128.641220 
	C152.600006,129.463242 152.607986,129.966614 152.246918,130.791077 
z"/>
<path fill="#4C7FAB" opacity="1.000000" stroke="none" 
	d="
M175.576828,146.831467 
	C175.965469,147.069702 175.985916,147.305389 176.044418,147.894638 
	C172.277222,151.169891 171.680954,155.518936 174.078247,162.622498 
	C170.848679,164.267975 170.100067,161.627304 169.317551,159.798828 
	C167.263855,154.999954 169.295990,147.825775 175.576828,146.831467 
z"/>
<path fill="#5888B0" opacity="1.000000" stroke="none" 
	d="
M221.659241,128.477386 
	C221.922562,128.909286 221.938156,129.099197 221.962006,129.574707 
	C219.185532,132.346375 216.130310,132.643600 214.055283,129.448349 
	C211.930008,126.175789 214.220856,123.941246 217.158600,122.520584 
	C218.443405,121.899269 219.595108,120.808990 221.576996,121.000305 
	C222.278244,121.485931 222.605087,121.994583 222.936462,122.822563 
	C222.202362,124.771027 216.382233,124.874313 221.659241,128.477386 
z"/>
<path fill="#6994B8" opacity="1.000000" stroke="none" 
	d="
M154.035278,145.118988 
	C155.607376,145.128540 157.035004,142.682159 158.007965,145.673203 
	C154.332123,145.809967 153.932968,149.002243 153.289261,151.223450 
	C152.547729,153.782120 151.634933,156.194763 150.151459,158.755188 
	C148.997253,158.511887 148.121078,158.048096 147.116241,157.315414 
	C149.782288,154.732208 149.911606,151.045181 151.544052,148.126236 
	C152.147903,147.046509 152.013000,145.506012 154.035278,145.118988 
z"/>
<path fill="#3971A1" opacity="1.000000" stroke="none" 
	d="
M264.799622,123.454803 
	C266.062714,120.445984 266.858734,117.808487 264.660828,115.037041 
	C264.133698,114.814644 263.953278,114.709755 263.528625,114.409042 
	C262.373627,112.606232 263.579620,112.574913 264.999390,112.522812 
	C268.322784,113.325974 268.270691,115.673973 268.433502,117.997383 
	C268.669800,121.369980 267.750854,124.818237 269.362122,128.425201 
	C270.565247,128.989197 270.580109,129.674896 270.227661,130.720123 
	C268.744232,131.271225 267.500305,131.408356 266.102112,130.254120 
	C264.527466,128.153488 264.450867,126.014694 264.799622,123.454803 
z"/>
<path fill="#2E699C" opacity="1.000000" stroke="none" 
	d="
M152.369568,129.123154 
	C151.499908,128.949921 150.863083,128.546188 149.871307,128.015991 
	C148.738434,126.594986 148.763351,125.257187 149.559418,123.565323 
	C149.851715,122.344421 149.885513,121.449974 149.837708,120.113647 
	C149.494827,117.949486 150.248581,115.971855 148.227936,114.419640 
	C147.658890,112.972229 148.417923,112.629021 149.855789,112.596039 
	C150.295135,112.705360 150.668121,112.875221 150.787872,113.041512 
	C151.107620,113.309906 151.307617,113.412003 151.696808,113.792747 
	C154.245926,117.885284 152.491928,122.092194 153.013168,126.540405 
	C153.012985,127.662552 152.940689,128.305069 152.369568,129.123154 
z"/>
<path fill="#769DBE" opacity="1.000000" stroke="none" 
	d="
M265.204865,112.361450 
	C264.726746,112.976440 264.074036,113.327080 263.352875,113.945473 
	C261.469940,114.707451 259.979492,115.440880 259.271698,117.471664 
	C258.764282,118.927589 257.307281,119.426407 256.030090,118.421257 
	C254.857498,117.498444 255.408340,116.199890 256.330200,115.394409 
	C258.799805,113.236610 261.232117,110.813011 265.204865,112.361450 
z"/>
<path fill="#769DBE" opacity="1.000000" stroke="none" 
	d="
M223.302338,112.359161 
	C222.789383,112.975349 222.067810,113.344833 221.266052,114.005646 
	C219.251678,114.736671 218.052567,115.947815 217.203705,117.725174 
	C216.613632,118.960693 215.348541,119.305855 214.271606,118.444199 
	C213.154022,117.550026 213.395004,116.244270 214.377151,115.390228 
	C216.853607,113.236725 219.280365,110.777054 223.302338,112.359161 
z"/>
<path fill="#769DBE" opacity="1.000000" stroke="none" 
	d="
M150.143097,112.426643 
	C149.639526,112.999611 148.983902,113.293869 148.148605,113.900192 
	C146.334290,114.880547 144.608612,115.273247 144.010834,117.417328 
	C143.585037,118.944557 142.094208,119.367226 140.850952,118.428856 
	C139.344025,117.291466 140.376755,115.783119 141.296600,115.081512 
	C143.814789,113.160759 146.289169,110.705734 150.143097,112.426643 
z"/>
<path fill="#6994B8" opacity="1.000000" stroke="none" 
	d="
M76.731224,164.665131 
	C73.825951,163.402100 75.132317,160.616272 75.141678,158.373352 
	C75.157196,154.652298 74.145851,150.806229 76.236389,147.027267 
	C76.674065,152.644409 76.763237,158.423370 76.731224,164.665131 
z"/>
<path fill="#D3E0EA" opacity="1.000000" stroke="none" 
	d="
M264.588318,123.067818 
	C265.157990,125.150047 265.357758,127.218521 265.660645,129.685577 
	C265.452545,130.148712 265.138184,130.173248 264.586060,130.135010 
	C264.049347,129.744446 263.820099,129.199570 263.432343,129.040009 
	C261.908691,128.413010 259.228851,129.000229 259.492706,126.426910 
	C259.737366,124.040894 261.874420,123.121941 264.588318,123.067818 
z"/>
<path fill="#6994B8" opacity="1.000000" stroke="none" 
	d="
M165.671600,116.388268 
	C165.198242,115.731926 165.081131,114.933235 164.945679,113.734680 
	C166.622543,112.766640 168.297943,111.839096 170.019211,111.744255 
	C171.391037,111.668671 173.215393,112.564964 173.146088,114.283745 
	C173.075363,116.037903 171.660339,116.761833 169.877319,116.117973 
	C168.565079,115.644112 167.290634,115.584312 165.671600,116.388268 
z"/>
<path fill="#769DBE" opacity="1.000000" stroke="none" 
	d="
M180.225250,114.445084 
	C179.857590,113.947693 179.887085,113.570572 179.924744,112.906693 
	C181.337631,110.431580 183.139786,111.579079 184.745834,112.169281 
	C186.600616,112.850876 187.444031,114.594856 186.461334,116.155174 
	C185.206512,118.147560 184.459351,115.746338 183.447815,115.327545 
	C182.554016,114.957512 181.567795,114.810707 180.225250,114.445084 
z"/>
<path fill="#7DA2C2" opacity="1.000000" stroke="none" 
	d="
M125.867569,102.968033 
	C126.070114,103.541748 126.029800,103.882179 125.902878,104.730331 
	C123.188919,105.198433 120.561562,105.158806 117.492752,105.096397 
	C117.043701,104.567673 117.036102,104.061737 117.017548,103.176247 
	C119.870140,101.500534 122.746407,101.975601 125.867569,102.968033 
z"/>
<path fill="#5686AF" opacity="1.000000" stroke="none" 
	d="
M218.752350,139.203949 
	C218.551804,141.412750 217.922226,142.943619 215.638611,141.676620 
	C214.563675,141.080215 213.872284,139.883377 214.711990,138.712418 
	C215.991135,136.928680 217.425613,137.041931 218.752350,139.203949 
z"/>
<path fill="#769DBE" opacity="1.000000" stroke="none" 
	d="
M196.382477,165.422455 
	C196.304077,164.685287 196.521301,164.161453 196.841644,163.369507 
	C198.630188,161.303772 200.875214,161.622253 203.394394,161.608246 
	C203.860214,162.079788 203.935120,162.442245 204.122238,163.351227 
	C202.123199,166.248886 199.490509,166.333023 196.382477,165.422455 
z"/>
<path fill="#7099BC" opacity="1.000000" stroke="none" 
	d="
M125.336288,131.021637 
	C124.674049,130.599854 124.373375,130.239410 123.808411,129.635132 
	C125.995132,128.719009 127.962494,124.883728 131.067261,128.637314 
	C129.301971,129.713028 127.499916,130.398010 125.336288,131.021637 
z"/>
<path fill="#8AABC8" opacity="1.000000" stroke="none" 
	d="
M119.760773,82.152954 
	C121.288475,80.120567 123.161804,79.748802 125.791771,79.040779 
	C124.799500,82.254311 122.548775,82.881699 120.327789,83.931099 
	C119.606720,83.534447 119.463058,83.045387 119.760773,82.152954 
z"/>
<path fill="#769DBE" opacity="1.000000" stroke="none" 
	d="
M152.124649,129.644501 
	C152.246994,128.699448 152.357239,128.045242 152.730286,127.196014 
	C153.968201,127.501022 155.041382,127.874138 155.893967,128.532806 
	C156.993179,129.381989 157.046188,130.106201 155.062347,129.986816 
	C154.654663,130.299530 154.446442,130.556503 154.037521,130.973175 
	C153.475357,131.218964 153.057205,131.259125 152.335281,131.204498 
	C152.058517,130.718246 152.085526,130.326797 152.124649,129.644501 
z"/>
<path fill="#7099BC" opacity="1.000000" stroke="none" 
	d="
M136.159317,146.763840 
	C134.182251,145.092697 135.220261,143.443878 136.289352,141.725235 
	C137.642868,142.427231 137.855637,143.693390 138.163162,145.232529 
	C137.594620,145.885239 137.009598,146.219315 136.159317,146.763840 
z"/>
<path fill="#2A679A" opacity="1.000000" stroke="none" 
	d="
M245.852829,149.507904 
	C246.204224,148.795807 246.485794,148.446701 247.045685,147.899841 
	C248.221588,148.821854 249.119186,149.941620 250.163452,151.334412 
	C249.804550,152.637604 249.928329,154.570587 247.556030,153.177338 
	C245.991241,152.344223 245.831100,151.134033 245.852829,149.507904 
z"/>
<path fill="#6994B8" opacity="1.000000" stroke="none" 
	d="
M84.413376,122.024567 
	C84.312500,119.714951 85.353432,117.700661 87.463028,115.984291 
	C87.351639,118.209839 86.177185,120.129478 84.413376,122.024567 
z"/>
<path fill="#7DA2C2" opacity="1.000000" stroke="none" 
	d="
M111.775566,102.604309 
	C111.952652,103.374557 111.909805,103.921974 111.803925,104.876625 
	C110.551636,104.869705 108.700264,104.930695 108.809563,103.242157 
	C108.920563,101.527306 110.479980,102.235001 111.775566,102.604309 
z"/>
<path fill="#7DA2C2" opacity="1.000000" stroke="none" 
	d="
M180.557983,163.037201 
	C180.719910,163.633804 180.433258,164.252350 180.027771,165.200439 
	C178.004868,166.330429 176.455521,166.403595 176.362488,163.355453 
	C177.692825,162.999725 178.901123,163.029434 180.557983,163.037201 
z"/>
<path fill="#5686AF" opacity="1.000000" stroke="none" 
	d="
M193.637878,101.957520 
	C193.646667,102.899231 193.292984,103.808365 192.864380,105.081367 
	C191.863693,104.871239 190.341385,104.669632 190.507309,103.264931 
	C190.687820,101.736855 192.238602,102.169853 193.637878,101.957520 
z"/>
<path fill="#8AABC8" opacity="1.000000" stroke="none" 
	d="
M247.541687,164.213562 
	C247.130127,163.926865 247.081436,163.618301 246.962616,162.845001 
	C247.825043,161.271408 249.087280,160.420609 249.890213,162.122940 
	C250.490295,163.395187 249.107697,163.988632 247.541687,164.213562 
z"/>
<path fill="#5B89B1" opacity="1.000000" stroke="none" 
	d="
M106.734070,88.218430 
	C106.650352,90.210167 104.974884,90.476440 103.068848,90.863464 
	C103.432281,89.224129 105.051376,88.904839 106.734070,88.218430 
z"/>
<path fill="#6994B8" opacity="1.000000" stroke="none" 
	d="
M77.514915,141.184494 
	C76.930595,140.303452 76.920753,139.330841 77.873177,138.202515 
	C78.893600,139.111664 78.556351,140.113525 77.514915,141.184494 
z"/>
<path fill="#5686AF" opacity="1.000000" stroke="none" 
	d="
M115.356476,87.022568 
	C115.019386,86.434738 114.997063,85.796776 114.982445,84.678207 
	C115.613503,83.893959 116.236855,83.590324 117.128845,83.280579 
	C117.742836,83.379517 118.088165,83.484566 118.549988,84.118378 
	C117.668053,85.422249 116.669647,86.197350 115.356476,87.022568 
z"/>
<path fill="#9DB9D1" opacity="1.000000" stroke="none" 
	d="
M137.104523,165.748993 
	C136.753448,165.074783 136.753708,164.515488 136.744843,163.675430 
	C137.751022,163.140686 138.631378,163.310654 138.828705,164.470123 
	C138.987808,165.405060 138.320221,165.795914 137.104523,165.748993 
z"/>
<path fill="#6994B8" opacity="1.000000" stroke="none" 
	d="
M78.315407,172.787994 
	C77.157433,172.455994 76.968925,171.519608 77.107826,170.113190 
	C78.465439,170.304337 78.616905,171.361084 78.315407,172.787994 
z"/>
<path fill="#92B1CC" opacity="1.000000" stroke="none" 
	d="
M192.292938,161.864227 
	C192.718979,162.544678 192.875687,163.364380 193.004303,164.604050 
	C190.675705,164.642578 191.117264,163.396347 192.292938,161.864227 
z"/>
<path fill="#92B1CC" opacity="1.000000" stroke="none" 
	d="
M270.349701,130.988220 
	C269.930023,130.436798 269.851440,129.864014 269.708313,129.011658 
	C270.401001,128.318588 271.180389,128.123108 271.614288,129.092926 
	C272.017548,129.994217 271.452728,130.563538 270.349701,130.988220 
z"/>
<path fill="#5384AE" opacity="1.000000" stroke="none" 
	d="
M238.489426,128.718292 
	C237.022552,128.606110 236.788040,127.696022 237.602692,126.254646 
	C238.054993,126.846794 238.292831,127.627861 238.489426,128.718292 
z"/>
<path fill="#9DB9D1" opacity="1.000000" stroke="none" 
	d="
M130.921967,163.353928 
	C131.269226,163.979523 131.255829,164.532623 131.244965,165.362091 
	C130.473190,165.939667 129.580948,166.095703 129.229050,165.209671 
	C128.796951,164.121735 129.409317,163.439301 130.921967,163.353928 
z"/>
<path fill="#7099BC" opacity="1.000000" stroke="none" 
	d="
M132.895050,158.267181 
	C134.448151,159.027496 133.539795,159.882004 132.651215,160.891846 
	C132.508423,160.192245 132.607849,159.355453 132.895050,158.267181 
z"/>
<path fill="#6994B8" opacity="1.000000" stroke="none" 
	d="
M79.659988,176.833679 
	C78.604729,176.837112 78.129143,176.194122 78.347824,174.844116 
	C79.264122,174.962311 79.641655,175.658142 79.659988,176.833679 
z"/>
<path fill="#6994B8" opacity="1.000000" stroke="none" 
	d="
M84.742805,186.797379 
	C83.746964,186.965485 83.230949,186.362946 83.142975,185.070557 
	C83.709061,185.328476 84.225014,185.910614 84.742805,186.797379 
z"/>
<path fill="#6994B8" opacity="1.000000" stroke="none" 
	d="
M86.827614,189.765991 
	C85.839806,189.958969 85.220779,189.456436 85.122925,188.112869 
	C86.024719,188.035568 86.544426,188.630371 86.827614,189.765991 
z"/>
<path fill="#7099BC" opacity="1.000000" stroke="none" 
	d="
M131.934509,138.393097 
	C133.022766,137.978485 133.757675,138.427734 133.747620,140.081696 
	C133.125519,139.862106 132.584839,139.269409 131.934509,138.393097 
z"/>
<path fill="#5686AF" opacity="1.000000" stroke="none" 
	d="
M119.670380,81.883789 
	C119.975197,82.292267 119.976044,82.768028 119.977554,83.600189 
	C119.694077,84.127815 119.408623,84.296867 118.894165,84.555435 
	C118.444244,84.430145 118.222031,84.213142 117.698654,83.635300 
	C118.053802,82.833344 118.710106,82.392212 119.670380,81.883789 
z"/>
<path fill="#5B89B1" opacity="1.000000" stroke="none" 
	d="
M109.851639,86.586624 
	C109.847015,87.485321 109.267349,87.909576 108.131836,87.943359 
	C108.122696,87.070656 108.712006,86.618706 109.851639,86.586624 
z"/>
<path fill="#6994B8" opacity="1.000000" stroke="none" 
	d="
M107.204575,93.760124 
	C106.994118,92.840805 107.492508,92.267189 108.674271,91.998924 
	C108.839310,92.869568 108.326286,93.443779 107.204575,93.760124 
z"/>
<path fill="#6994B8" opacity="1.000000" stroke="none" 
	d="
M88.441742,115.095253 
	C87.935234,114.250206 88.287094,113.548271 89.402100,112.967285 
	C89.874229,113.816544 89.423195,114.458672 88.441742,115.095253 
z"/>
<path fill="#6994B8" opacity="1.000000" stroke="none" 
	d="
M81.538681,128.172333 
	C80.977455,127.445511 81.155708,126.697083 82.127335,125.955635 
	C82.793129,126.719391 82.427910,127.407890 81.538681,128.172333 
z"/>
<path fill="#5686AF" opacity="1.000000" stroke="none" 
	d="
M192.601562,127.838310 
	C192.971817,128.692551 192.837158,129.587616 191.264404,129.914429 
	C191.389587,129.294891 191.875122,128.658676 192.601562,127.838310 
z"/>
<path fill="#6994B8" opacity="1.000000" stroke="none" 
	d="
M78.700195,136.275543 
	C78.025467,135.569550 78.071175,134.770508 79.137947,133.965027 
	C79.823608,134.706360 79.492317,135.426346 78.700195,136.275543 
z"/>
<path fill="#92B1CC" opacity="1.000000" stroke="none" 
	d="
M190.982910,138.316620 
	C191.996613,138.094879 192.725830,138.487869 192.669235,139.959167 
	C192.036057,139.729279 191.508820,139.173599 190.982910,138.316620 
z"/>
<path fill="#5686AF" opacity="1.000000" stroke="none" 
	d="
M198.216827,130.967926 
	C197.990616,130.939651 197.992523,130.449173 198.000168,130.204010 
	C198.386414,130.136307 198.765030,130.313797 199.143631,130.491272 
	C198.910110,130.659592 198.676575,130.827896 198.216827,130.967926 
z"/>
<path fill="#5384AE" opacity="1.000000" stroke="none" 
	d="
M240.172424,130.926453 
	C239.968781,130.910400 239.980484,130.463135 239.989288,130.239624 
	C240.334213,130.175735 240.670334,130.335373 241.006454,130.495010 
	C240.796326,130.644180 240.586197,130.793350 240.172424,130.926453 
z"/>
<path fill="#92B1CC" opacity="1.000000" stroke="none" 
	d="
M190.754913,137.008057 
	C191.029816,137.182358 191.045074,137.349625 191.022141,137.765961 
	C190.501083,137.939667 189.848190,138.129639 189.797836,137.360321 
	C189.791016,137.256226 190.251282,137.121552 190.754913,137.008057 
z"/>
<path fill="#5686AF" opacity="1.000000" stroke="none" 
	d="
M190.669342,129.991348 
	C190.961334,130.105621 190.975037,130.281067 190.995712,130.720184 
	C190.441483,130.908081 189.824081,130.869171 190.669342,129.991348 
z"/>
<path fill="#5888B0" opacity="1.000000" stroke="none" 
	d="
M154.197647,131.124557 
	C154.058090,130.883087 154.222702,130.587372 154.596802,130.144196 
	C154.704803,130.354584 154.603317,130.712448 154.197647,131.124557 
z"/>
<path fill="#7DA2C2" opacity="1.000000" stroke="none" 
	d="
M109.613739,129.950226 
	C109.907242,130.073959 109.916473,130.270355 109.943550,130.761383 
	C109.329727,130.969162 108.813782,130.811554 109.613739,129.950226 
z"/>
<path fill="#4C7FAB" opacity="1.000000" stroke="none" 
	d="
M176.018646,125.993065 
	C176.021774,125.992607 175.914795,125.806099 175.914795,125.806099 
	C175.914795,125.806099 175.885056,126.052101 175.944611,126.010399 
	C176.004181,125.968697 176.015518,125.993523 176.018646,125.993065 
z"/>
<path fill="#4C7FAB" opacity="1.000000" stroke="none" 
	d="
M173.913528,163.485535 
	C174.226013,162.953903 174.488983,162.891068 175.150452,162.903214 
	C175.695694,164.526367 174.933960,164.506332 173.913528,163.485535 
z"/>
<path fill="#769DBE" opacity="1.000000" stroke="none" 
	d="
M151.780228,113.871307 
	C151.520401,114.119652 151.235992,113.989906 150.970200,113.444977 
	C151.208374,113.287552 151.463989,113.442024 151.780228,113.871307 
z"/>
<path fill="#7099BC" opacity="1.000000" stroke="none" 
	d="
M130.770844,137.060349 
	C131.021423,137.049667 131.054199,137.483231 131.044006,137.700256 
	C130.444763,137.888779 130.082092,137.722916 130.770844,137.060349 
z"/>
<path fill="#E3EBF2" opacity="1.000000" stroke="none" 
	d="
M245.580780,149.073608 
	C246.375458,150.203232 246.828293,151.261581 247.276825,152.672440 
	C246.138123,153.091660 244.990753,153.296310 243.872498,153.191223 
	C242.364944,153.049545 240.526245,153.990387 239.448639,152.245453 
	C238.975616,151.479492 239.665909,150.719589 240.170181,150.086151 
	C241.559082,148.341507 243.188080,147.673370 245.580780,149.073608 
z"/>
<path fill="#F4F7FA" opacity="1.000000" stroke="none" 
	d="
M203.905014,161.348755 
	C202.018555,163.278946 199.917633,163.284012 197.350952,163.056442 
	C194.941650,158.695740 195.827911,154.191025 196.753754,149.378860 
	C204.392944,149.117813 206.661346,152.978180 203.905014,161.348755 
z"/>
<path fill="#D3E0EA" opacity="1.000000" stroke="none" 
	d="
M222.076874,128.408081 
	C220.147339,128.737946 217.708008,129.097839 217.562973,126.852287 
	C217.388565,124.152115 219.736176,123.221886 222.575378,123.100739 
	C223.041702,124.840057 223.300903,126.560425 222.076874,128.408081 
z"/>
<path fill="#D3E0EA" opacity="1.000000" stroke="none" 
	d="
M149.455780,123.163208 
	C149.772873,124.534164 149.727859,125.829453 149.599609,127.507126 
	C147.604248,128.396408 144.940033,130.085403 144.303223,127.032104 
	C143.654755,123.922981 146.584106,123.345459 149.455780,123.163208 
z"/>
</svg>